<?xml version="1.0" standalone="no"?>
<!DOCTYPE svg PUBLIC "-//W3C//DTD SVG 20010904//EN"
 "http://www.w3.org/TR/2001/REC-SVG-20010904/DTD/svg10.dtd">
<svg version="1.0" xmlns="http://www.w3.org/2000/svg"
 width="512.000000pt" height="512.000000pt" viewBox="0 0 512.000000 512.000000"
 preserveAspectRatio="xMidYMid meet">
<metadata>
Created by potrace 1.16, written by Peter Selinger 2001-2019
</metadata>
<g transform="translate(0.000000,512.000000) scale(0.100000,-0.100000)"
fill="#000000" stroke="none">
<path d="M3110 4820 c-8 -15 -6 -29 6 -57 11 -27 17 -72 18 -153 2 -132 19
-187 70 -222 l31 -22 -32 37 c-30 34 -38 47 -30 47 2 0 23 -21 47 -46 25 -26
39 -43 31 -39 -10 6 -12 4 -7 -4 5 -7 11 -10 14 -7 3 4 16 -4 29 -16 13 -12
23 -20 23 -17 9 209 8 258 -6 300 -17 53 -73 123 -116 145 -16 9 -28 18 -25
20 9 10 62 -24 113 -73 28 -26 42 -41 31 -33 -11 8 -18 11 -15 5 2 -5 12 -27
21 -48 38 -82 41 -192 12 -343 -5 -26 -52 -77 -64 -70 -4 3 -14 34 -22 68
l-13 63 -5 -56 c-5 -46 -14 -66 -48 -110 -23 -30 -56 -86 -74 -124 -48 -105
-83 -150 -152 -199 -74 -53 -133 -80 -210 -96 -46 -9 -77 -8 -169 6 -393 58
-738 -66 -1054 -381 -122 -121 -182 -205 -259 -360 -76 -154 -133 -320 -174
-505 -35 -159 -47 -254 -61 -490 -25 -418 -73 -589 -250 -883 -46 -76 15 -60
110 29 127 120 220 271 280 454 35 107 47 169 60 325 6 66 16 153 22 194 l11
73 42 -128 c23 -71 56 -163 74 -204 30 -69 33 -83 33 -185 1 -174 -31 -305
-104 -430 -94 -160 -274 -286 -410 -287 -87 0 -149 36 -186 108 -37 72 -33
217 10 341 12 35 18 66 14 70 -12 12 -74 -65 -106 -133 -113 -236 -52 -458
155 -560 56 -27 67 -29 180 -29 l120 0 98 49 c77 38 117 66 183 129 130 123
206 245 333 539 l56 130 50 16 c31 11 51 24 53 35 3 16 1 16 -30 -2 -117 -69
-280 -35 -365 77 -45 60 -41 67 10 17 68 -65 108 -80 212 -80 68 0 101 5 133
19 45 21 49 30 55 136 2 38 4 29 5 -30 1 -64 -6 -117 -29 -215 -108 -463 -152
-669 -156 -731 -5 -63 -3 -73 19 -98 20 -24 37 -30 123 -43 128 -20 646 -107
790 -133 139 -25 296 -27 330 -4 17 11 35 14 60 10 19 -4 35 -3 35 1 0 21 -43
75 -81 103 -70 50 -174 76 -584 145 -115 19 -237 42 -270 50 -106 28 -135 74
-135 215 0 168 34 324 129 596 88 253 109 417 77 587 -37 191 -140 299 -299
314 -50 4 -76 0 -137 -20 -78 -26 -73 -12 10 26 65 29 188 30 251 0 94 -43
173 -153 204 -285 20 -85 19 -287 -1 -386 -8 -42 -28 -115 -44 -162 -15 -47
-27 -86 -25 -88 8 -8 111 151 151 233 99 204 122 325 85 458 -53 195 -211 412
-345 477 -99 47 -257 35 -386 -30 -33 -17 -92 -61 -132 -98 -40 -37 -68 -60
-62 -52 104 146 214 217 373 240 81 11 175 -1 234 -32 134 -68 298 -308 350
-513 13 -50 35 -111 50 -136 54 -91 69 -153 74 -306 4 -90 9 -140 15 -137 17
11 0 -34 -57 -151 -47 -97 -129 -217 -210 -310 -31 -35 -32 -40 20 125 42 130
51 219 40 364 l-7 98 -100 -168 c-141 -237 -151 -258 -134 -262 12 -3 11 -14
-5 -69 -37 -131 -81 -365 -76 -401 8 -47 49 -88 95 -96 20 -3 109 -12 197 -21
191 -18 314 -34 575 -74 247 -39 497 -55 720 -48 237 8 249 13 187 71 -47 45
-91 56 -262 66 -160 10 -200 16 -565 86 -129 24 -273 52 -320 60 -47 9 -96 23
-108 31 -36 22 -52 73 -52 160 0 98 15 159 72 299 40 97 90 248 150 454 25 88
34 232 19 312 -7 35 -28 103 -48 151 -19 49 -33 90 -31 91 10 6 110 86 155
124 l53 43 -53 60 c-101 115 -107 148 -44 241 74 108 96 152 116 232 24 97 38
118 96 146 59 29 67 21 16 -15 -37 -25 -81 -93 -81 -123 0 -31 -42 -127 -83
-191 -62 -95 -77 -125 -77 -156 0 -46 37 -101 127 -186 204 -195 211 -208 143
-241 -79 -39 -149 -158 -113 -194 13 -13 13 -17 -1 -38 -20 -32 -80 -68 -100
-60 -31 12 -16 -14 17 -27 42 -18 100 -17 122 1 10 8 30 13 45 12 37 -4 106
50 143 112 16 28 46 70 67 94 27 30 47 68 64 120 40 128 41 122 -9 264 -66
192 -61 226 50 363 77 94 135 226 135 307 0 23 -5 79 -12 124 -13 94 -1 163
30 165 9 1 -25 8 -77 15 -134 20 -182 62 -197 177 -7 48 14 137 40 172 11 15
10 3 -5 -45 -27 -85 -21 -157 16 -206 39 -51 63 -63 156 -78 165 -27 242 -53
292 -100 53 -51 100 -64 150 -43 17 8 44 19 58 25 16 6 35 28 49 57 l22 46
-25 37 c-13 20 -52 71 -86 112 -62 75 -64 79 -46 138 6 19 -5 35 -77 105 -91
89 -138 147 -138 171 0 45 65 162 104 186 11 7 6 -3 -12 -27 -29 -36 -82 -142
-82 -163 0 -19 155 68 200 112 59 57 116 128 124 154 11 36 -16 48 -56 24 -19
-11 -70 -24 -114 -30 -95 -13 -199 -59 -264 -117 l-44 -40 -18 69 c-33 129
-88 216 -182 285 -65 48 -108 56 -126 23z m257 -226 c18 -41 26 -75 28 -132 1
-42 1 -61 -1 -42 -9 78 -27 157 -45 192 -11 21 -17 38 -14 38 4 0 18 -25 32
-56z m523 30 c0 -20 -48 -38 -145 -54 -97 -16 -175 -49 -235 -99 -67 -56 -82
-59 -25 -5 78 74 164 109 316 129 26 3 55 14 65 25 24 23 24 23 24 4z m-395
-285 c27 -8 62 -33 110 -79 38 -37 91 -88 118 -113 35 -33 47 -52 47 -73 0
-28 -1 -28 -19 11 -24 52 -219 223 -270 237 -39 11 -65 28 -40 28 7 0 32 -5
54 -11z m-313 -181 c-15 -24 -41 -72 -56 -108 -58 -138 -125 -207 -266 -276
-120 -59 -155 -62 -398 -35 -151 18 -311 -8 -456 -72 -303 -134 -578 -391
-745 -698 -55 -100 -52 -80 5 33 118 234 277 412 511 568 264 177 485 229 796
185 130 -18 181 -11 295 45 114 57 177 121 237 241 44 87 89 159 101 159 3 0
-8 -19 -24 -42z m376 -14 c24 -15 29 -34 10 -34 -7 0 -6 -6 4 -17 8 -10 18
-33 21 -50 4 -18 27 -61 52 -95 47 -65 63 -107 20 -52 -30 38 -90 64 -149 64
-56 0 -93 28 -102 78 -4 20 -11 45 -16 55 -8 16 -7 17 11 7 12 -6 21 -19 21
-29 0 -28 31 -59 70 -70 l35 -11 -33 5 c-20 3 -31 1 -27 -5 3 -6 24 -10 46
-10 22 0 54 -7 70 -16 30 -15 30 -15 19 5 -6 12 -15 21 -20 21 -6 0 -9 3 -8 8
5 22 -16 93 -34 112 -20 21 -27 22 -102 16 -89 -8 -93 2 -11 28 53 16 86 13
123 -10z m-33 -44 c4 -6 -10 -10 -35 -10 -25 0 -39 4 -35 10 3 6 19 10 35 10
16 0 32 -4 35 -10z m262 -32 c-3 -8 -6 -5 -6 6 -1 11 2 17 5 13 3 -3 4 -12 1
-19z m5 -95 c18 -23 53 -66 76 -95 29 -34 17 -25 -33 27 -75 79 -108 121 -87
114 6 -2 25 -23 44 -46z m-462 -5 c0 -9 14 -30 31 -47 17 -17 26 -31 22 -31
-24 0 -73 78 -73 113 0 19 20 -16 20 -35z m555 -163 l40 -16 -35 6 c-19 4 -45
7 -57 8 -11 1 -19 5 -16 10 6 11 23 9 68 -8z m-195 -20 c0 -40 26 -80 62 -98
18 -9 26 -17 16 -17 -27 0 -73 46 -90 89 -9 22 -13 42 -10 45 12 13 22 4 22
-19z m143 -52 c11 -13 15 -23 9 -23 -16 0 -42 41 -41 65 1 20 1 20 6 0 3 -11
14 -30 26 -42z m58 -26 c-10 -9 -11 -8 -5 6 3 10 9 15 12 12 3 -3 0 -11 -7
-18z m-501 -127 c7 -49 10 -114 7 -144 -8 -84 -58 -177 -140 -264 -96 -100
-210 -198 -215 -183 -5 15 35 67 121 159 88 93 112 145 103 225 -5 52 -3 62
18 90 29 39 49 85 65 155 7 28 16 52 21 52 4 0 13 -40 20 -90z m-400 -99 c0
-5 -25 -28 -56 -51 -31 -23 -62 -56 -70 -74 -12 -29 -13 -29 -14 -6 0 17 18
41 62 82 59 56 78 68 78 49z m186 -47 c18 -43 18 -128 0 -188 -8 -27 -40 -81
-75 -125 -33 -43 -66 -90 -72 -105 -13 -29 -7 -44 93 -215 56 -95 108 -219
108 -257 0 -34 -24 -79 -75 -139 -23 -27 -49 -64 -58 -80 -8 -17 -25 -39 -38
-50 -19 -17 -19 -14 4 13 15 19 27 39 27 47 0 7 24 39 53 72 63 70 82 110 73
155 -3 18 -38 87 -78 153 -86 145 -128 235 -128 273 0 19 18 55 51 102 81 115
103 171 103 265 0 48 -5 89 -13 104 -9 17 -10 21 -1 16 7 -4 18 -22 26 -41z
m-453 -56 c-11 -46 -14 -98 -10 -188 4 -95 2 -119 -6 -100 -6 14 -11 81 -11
150 -1 97 3 133 16 163 9 20 19 37 21 37 2 0 -2 -28 -10 -62z m-663 -160 c46
-22 87 -53 142 -108 64 -65 85 -96 127 -182 33 -68 57 -137 72 -205 l23 -102
25 19 c14 10 80 67 146 128 l121 110 31 -37 31 -37 -92 -75 c-107 -88 -280
-219 -289 -219 -4 0 -22 31 -41 69 -109 220 -326 430 -501 483 -137 42 -279
24 -387 -49 -69 -46 -76 -47 -28 -3 161 146 409 142 612 -11 78 -58 197 -196
276 -319 30 -47 59 -89 65 -95 18 -19 -4 117 -34 210 -61 192 -181 339 -351
429 -84 44 -46 40 52 -6z m1152 -135 c-37 -46 -68 -75 -107 -98 -16 -10 6 16
50 58 44 42 82 76 83 77 2 0 -10 -17 -26 -37z m-282 -288 c80 -94 150 -197
150 -219 0 -6 -13 12 -29 40 -15 29 -66 98 -113 155 -101 125 -118 149 -118
169 1 8 7 1 14 -16 8 -17 51 -75 96 -129z m257 123 c-3 -7 -5 -2 -5 12 0 14 2
19 5 13 2 -7 2 -19 0 -25z m70 -205 c-5 -4 -67 165 -66 181 0 6 16 -31 35 -83
19 -52 33 -96 31 -98z m10 -60 c-3 -10 -5 -2 -5 17 0 19 2 27 5 18 2 -10 2
-26 0 -35z m-182 -177 c-7 -39 -84 -123 -116 -128 -43 -6 -27 25 31 57 61 34
79 61 81 120 2 33 3 35 6 11 3 -16 2 -43 -2 -60z m-455 4 c81 -161 80 -353 -5
-535 l-32 -70 -7 60 c-19 173 -52 279 -118 379 -40 59 -73 135 -63 144 9 9 94
-79 128 -133 18 -27 42 -79 54 -115 16 -45 23 -57 24 -40 6 89 -21 163 -94
252 l-46 57 52 30 c29 17 58 31 64 31 7 0 26 -27 43 -60z m400 -224 c0 -2 -8
-10 -17 -17 -16 -13 -17 -12 -4 4 13 16 21 21 21 13z m-1063 -498 c-3 -8 -6
-5 -6 6 -1 11 2 17 5 13 3 -3 4 -12 1 -19z m-12 -60 c-11 -68 -47 -209 -52
-204 -3 3 7 59 23 125 27 120 42 160 29 79z m270 -250 c-12 -60 -38 -149 -42
-145 -5 5 38 177 44 177 3 0 2 -15 -2 -32z m-849 -95 c-140 -294 -434 -465
-621 -360 -52 29 -96 101 -101 164 l-4 48 13 -50 c18 -67 29 -85 76 -128 46
-41 87 -52 175 -45 160 13 352 177 457 390 18 37 35 65 37 63 3 -2 -12 -39
-32 -82z m911 -75 c-14 -35 -35 -84 -47 -107 -39 -77 -10 -110 105 -125 166
-21 401 -59 408 -66 5 -4 -16 -3 -45 1 -29 5 -142 20 -251 33 -108 14 -206 30
-217 36 -24 13 -40 42 -40 72 1 50 91 237 108 223 1 -1 -8 -31 -21 -67z m66
-50 c-8 -24 -13 -64 -11 -90 2 -28 -1 -43 -6 -38 -15 15 -11 92 7 133 22 50
28 47 10 -5z m-446 -10 c-3 -8 -6 -5 -6 6 -1 11 2 17 5 13 3 -3 4 -12 1 -19z
m-2 -255 c3 -13 18 -29 33 -37 35 -18 181 -48 397 -81 500 -77 589 -100 646
-162 l24 -25 -38 25 c-48 32 -128 63 -187 71 l-45 6 55 -22 c53 -22 130 -86
130 -110 0 -6 -14 3 -32 21 -75 77 -172 105 -658 195 -292 54 -315 60 -335 89
-17 24 -20 129 -7 213 6 42 7 33 9 -56 2 -58 5 -115 8 -127z m925 71 c135 -25
306 -57 380 -70 74 -14 214 -31 310 -38 182 -14 236 -28 270 -73 14 -17 14
-17 -6 -1 -45 39 -97 51 -254 58 -164 8 -207 15 -585 86 -360 68 -438 84 -444
90 -8 8 40 1 329 -52z"/>
<path d="M3250 4310 c0 -8 5 -22 10 -30 9 -13 10 -13 10 0 0 8 -5 22 -10 30
-9 13 -10 13 -10 0z"/>
<path d="M3478 3753 c7 -3 16 -2 19 1 4 3 -2 6 -13 5 -11 0 -14 -3 -6 -6z"/>
<path d="M3568 3733 c7 -3 16 -2 19 1 4 3 -2 6 -13 5 -11 0 -14 -3 -6 -6z"/>
</g>
</svg>